<svg xmlns="http://www.w3.org/2000/svg" xmlns:xlink="http://www.w3.org/1999/xlink" version="1.1" width="256" height="256" viewBox="0 0 256 256" xml:space="preserve">

<defs>
</defs>
<g style="stroke: none; stroke-width: 0; stroke-dasharray: none; stroke-linecap: butt; stroke-linejoin: miter; stroke-miterlimit: 10; fill: none; fill-rule: nonzero; opacity: 1;" transform="translate(1.4065934065934016 1.4065934065934016) scale(2.81 2.81)" >
	<path d="M 45 0 C 20.147 0 0 20.147 0 45 c 0 24.853 20.147 45 45 45 s 45 -20.147 45 -45 C 90 20.147 69.853 0 45 0 z M 45 82.5 C 24.289 82.5 7.5 65.711 7.5 45 S 24.289 7.5 45 7.5 S 82.5 24.289 82.5 45 S 65.711 82.5 45 82.5 z" style="stroke: none; stroke-width: 1; stroke-dasharray: none; stroke-linecap: butt; stroke-linejoin: miter; stroke-miterlimit: 10; fill: rgb(0,0,0); fill-rule: nonzero; opacity: 1;" transform=" matrix(1 0 0 1 0 0) " stroke-linecap="round" />
	<path d="M 27.357 60.147 h -5.909 V 37.011 l -5.763 2.226 v -4.91 l 11.048 -4.515 h 0.625 V 60.147 z" style="stroke: none; stroke-width: 1; stroke-dasharray: none; stroke-linecap: butt; stroke-linejoin: miter; stroke-miterlimit: 10; fill: rgb(0,0,0); fill-rule: nonzero; opacity: 1;" transform=" matrix(1 0 0 1 0 0) " stroke-linecap="round" />
	<path d="M 53.551 47.622 c 0 4.189 -0.76 7.394 -2.277 9.612 c -1.52 2.22 -3.688 3.329 -6.502 3.329 c -2.788 0 -4.941 -1.078 -6.46 -3.235 c -1.519 -2.156 -2.306 -5.246 -2.361 -9.269 v -5.722 c 0 -4.175 0.756 -7.369 2.268 -9.581 c 1.512 -2.212 3.683 -3.319 6.512 -3.319 c 2.829 0 4.999 1.096 6.513 3.288 c 1.512 2.192 2.281 5.319 2.309 9.383 V 47.622 z M 47.643 41.47 c 0 -2.395 -0.236 -4.191 -0.709 -5.389 c -0.471 -1.198 -1.206 -1.796 -2.204 -1.796 c -1.873 0 -2.844 2.193 -2.913 6.58 v 7.582 c 0 2.451 0.239 4.275 0.718 5.473 c 0.479 1.197 1.224 1.796 2.237 1.796 c 0.957 0 1.667 -0.561 2.131 -1.682 s 0.711 -2.837 0.74 -5.148 V 41.47 z" style="stroke: none; stroke-width: 1; stroke-dasharray: none; stroke-linecap: butt; stroke-linejoin: miter; stroke-miterlimit: 10; fill: rgb(0,0,0); fill-rule: nonzero; opacity: 1;" transform=" matrix(1 0 0 1 0 0) " stroke-linecap="round" />
	<path d="M 68.427 43.169 h 5.889 v 5.472 h -5.889 v 8.468 h -5.575 v -8.468 H 56.86 v -5.472 h 5.992 v -8.114 h 5.575 V 43.169 z" style="stroke: none; stroke-width: 1; stroke-dasharray: none; stroke-linecap: butt; stroke-linejoin: miter; stroke-miterlimit: 10; fill: rgb(0,0,0); fill-rule: nonzero; opacity: 1;" transform=" matrix(1 0 0 1 0 0) " stroke-linecap="round" />
</g>
</svg>