<svg xmlns="http://www.w3.org/2000/svg" xmlns:xlink="http://www.w3.org/1999/xlink" version="1.1" width="256" height="256" viewBox="0 0 256 256" xml:space="preserve">

<defs>
</defs>
<g style="stroke: none; stroke-width: 0; stroke-dasharray: none; stroke-linecap: butt; stroke-linejoin: miter; stroke-miterlimit: 10; fill: none; fill-rule: nonzero; opacity: 1;" transform="translate(1.4065934065934016 1.4065934065934016) scale(2.81 2.81)" >
	<path d="M 45 0 C 20.147 0 0 20.147 0 45 c 0 24.853 20.147 45 45 45 s 45 -20.147 45 -45 C 90 20.147 69.853 0 45 0 z M 45 82.5 C 24.289 82.5 7.5 65.711 7.5 45 S 24.289 7.5 45 7.5 S 82.5 24.289 82.5 45 S 65.711 82.5 45 82.5 z" style="stroke: none; stroke-width: 1; stroke-dasharray: none; stroke-linecap: butt; stroke-linejoin: miter; stroke-miterlimit: 10; fill: rgb(255,255,255); fill-rule: nonzero; opacity: 1;" transform=" matrix(1 0 0 1 0 0) " stroke-linecap="round" />
	<path d="M 28.262 57.452 h -5.909 V 34.316 l -5.763 2.226 v -4.91 l 11.048 -4.515 h 0.625 V 57.452 z" style="stroke: none; stroke-width: 1; stroke-dasharray: none; stroke-linecap: butt; stroke-linejoin: miter; stroke-miterlimit: 10; fill: rgb(255,255,255); fill-rule: nonzero; opacity: 1;" transform=" matrix(1 0 0 1 0 0) " stroke-linecap="round" />
	<path d="M 52.706 57.452 H 34.854 v -4.126 l 8.198 -10.459 c 1.04 -1.448 1.806 -2.718 2.298 -3.811 c 0.492 -1.093 0.738 -2.141 0.738 -3.143 c 0 -1.351 -0.232 -2.409 -0.697 -3.174 s -1.133 -1.148 -2.006 -1.148 c -0.958 0 -1.717 0.447 -2.278 1.342 c -0.562 0.895 -0.843 2.154 -0.843 3.776 h -5.909 c 0 -1.858 0.385 -3.558 1.155 -5.098 c 0.77 -1.54 1.852 -2.736 3.246 -3.589 s 2.972 -1.28 4.733 -1.28 c 2.705 0 4.803 0.746 6.293 2.237 c 1.49 1.491 2.236 3.61 2.236 6.356 c 0 1.706 -0.412 3.437 -1.238 5.191 c -0.824 1.755 -2.318 3.92 -4.482 6.498 l -3.891 5.58 h 10.299 V 57.452 z" style="stroke: none; stroke-width: 1; stroke-dasharray: none; stroke-linecap: butt; stroke-linejoin: miter; stroke-miterlimit: 10; fill: rgb(255,255,255); fill-rule: nonzero; opacity: 1;" transform=" matrix(1 0 0 1 0 0) " stroke-linecap="round" />
	<path d="M 69.332 40.474 h 5.889 v 5.472 h -5.889 v 8.468 h -5.575 v -8.468 h -5.992 v -5.472 h 5.992 V 32.36 h 5.575 V 40.474 z" style="stroke: none; stroke-width: 1; stroke-dasharray: none; stroke-linecap: butt; stroke-linejoin: miter; stroke-miterlimit: 10; fill: rgb(255,255,255); fill-rule: nonzero; opacity: 1;" transform=" matrix(1 0 0 1 0 0) " stroke-linecap="round" />
</g>
</svg>