<svg xmlns="http://www.w3.org/2000/svg" xmlns:xlink="http://www.w3.org/1999/xlink" version="1.1" width="256" height="256" viewBox="0 0 256 256" xml:space="preserve">

<defs>
</defs>
<g style="stroke: none; stroke-width: 0; stroke-dasharray: none; stroke-linecap: butt; stroke-linejoin: miter; stroke-miterlimit: 10; fill: none; fill-rule: nonzero; opacity: 1;" transform="translate(1.4065934065934016 1.4065934065934016) scale(2.81 2.81)" >
	<path d="M 45 0 C 20.147 0 0 20.147 0 45 c 0 24.853 20.147 45 45 45 s 45 -20.147 45 -45 C 90 20.147 69.853 0 45 0 z M 45 82.5 C 24.289 82.5 7.5 65.711 7.5 45 S 24.289 7.5 45 7.5 S 82.5 24.289 82.5 45 S 65.711 82.5 45 82.5 z" style="stroke: none; stroke-width: 1; stroke-dasharray: none; stroke-linecap: butt; stroke-linejoin: miter; stroke-miterlimit: 10; fill: rgb(0,0,0); fill-rule: nonzero; opacity: 1;" transform=" matrix(1 0 0 1 0 0) " stroke-linecap="round" />
	<path d="M 27.356 60.147 h -5.909 V 37.011 l -5.763 2.226 v -4.91 l 11.048 -4.515 h 0.625 V 60.147 z" style="stroke: none; stroke-width: 1; stroke-dasharray: none; stroke-linecap: butt; stroke-linejoin: miter; stroke-miterlimit: 10; fill: rgb(0,0,0); fill-rule: nonzero; opacity: 1;" transform=" matrix(1 0 0 1 0 0) " stroke-linecap="round" />
	<path d="M 39.192 42.316 h 2.851 c 1.082 0 1.876 -0.379 2.382 -1.14 c 0.508 -0.76 0.76 -1.774 0.76 -3.043 c 0 -1.213 -0.26 -2.158 -0.779 -2.834 c -0.521 -0.676 -1.218 -1.014 -2.092 -1.014 c -0.819 0 -1.488 0.323 -2.008 0.969 c -0.521 0.646 -0.78 1.46 -0.78 2.443 h -5.888 c 0 -1.582 0.364 -3 1.092 -4.255 s 1.748 -2.237 3.059 -2.944 c 1.311 -0.707 2.764 -1.061 4.359 -1.061 c 2.788 0 4.973 0.77 6.555 2.31 c 1.58 1.54 2.371 3.648 2.371 6.325 c 0 1.373 -0.357 2.646 -1.072 3.818 c -0.715 1.172 -1.654 2.07 -2.818 2.694 c 1.428 0.61 2.492 1.526 3.193 2.747 s 1.051 2.663 1.051 4.327 c 0 2.691 -0.857 4.849 -2.57 6.471 c -1.713 1.623 -3.963 2.435 -6.751 2.435 c -2.594 0 -4.699 -0.801 -6.315 -2.403 c -1.616 -1.602 -2.424 -3.706 -2.424 -6.314 h 5.888 c 0 1.094 0.284 2.012 0.853 2.755 c 0.568 0.743 1.29 1.115 2.164 1.115 c 1.013 0 1.813 -0.376 2.403 -1.129 s 0.885 -1.756 0.885 -3.011 c 0 -2.997 -1.158 -4.502 -3.475 -4.516 h -2.892 V 42.316 z" style="stroke: none; stroke-width: 1; stroke-dasharray: none; stroke-linecap: butt; stroke-linejoin: miter; stroke-miterlimit: 10; fill: rgb(0,0,0); fill-rule: nonzero; opacity: 1;" transform=" matrix(1 0 0 1 0 0) " stroke-linecap="round" />
	<path d="M 68.427 43.169 h 5.889 v 5.472 h -5.889 v 8.468 h -5.575 v -8.468 H 56.86 v -5.472 h 5.992 v -8.114 h 5.575 V 43.169 z" style="stroke: none; stroke-width: 1; stroke-dasharray: none; stroke-linecap: butt; stroke-linejoin: miter; stroke-miterlimit: 10; fill: rgb(0,0,0); fill-rule: nonzero; opacity: 1;" transform=" matrix(1 0 0 1 0 0) " stroke-linecap="round" />
</g>
</svg>