<svg xmlns="http://www.w3.org/2000/svg" xmlns:xlink="http://www.w3.org/1999/xlink" version="1.1" width="256" height="256" viewBox="0 0 256 256" xml:space="preserve">

<defs>
</defs>
<g style="stroke: none; stroke-width: 0; stroke-dasharray: none; stroke-linecap: butt; stroke-linejoin: miter; stroke-miterlimit: 10; fill: none; fill-rule: nonzero; opacity: 1;" transform="translate(1.4065934065934016 1.4065934065934016) scale(2.81 2.81)" >
	<path d="M 45 0 C 20.147 0 0 20.147 0 45 c 0 24.853 20.147 45 45 45 s 45 -20.147 45 -45 C 90 20.147 69.853 0 45 0 z M 45 82.5 C 24.289 82.5 7.5 65.711 7.5 45 S 24.289 7.5 45 7.5 S 82.5 24.289 82.5 45 S 65.711 82.5 45 82.5 z" style="stroke: none; stroke-width: 1; stroke-dasharray: none; stroke-linecap: butt; stroke-linejoin: miter; stroke-miterlimit: 10; fill: rgb(0,0,0); fill-rule: nonzero; opacity: 1;" transform=" matrix(1 0 0 1 0 0) " stroke-linecap="round" />
	<path d="M 27.356 59.96 h -5.909 V 36.823 l -5.763 2.226 v -4.91 l 11.048 -4.515 h 0.625 V 59.96 z" style="stroke: none; stroke-width: 1; stroke-dasharray: none; stroke-linecap: butt; stroke-linejoin: miter; stroke-miterlimit: 10; fill: rgb(0,0,0); fill-rule: nonzero; opacity: 1;" transform=" matrix(1 0 0 1 0 0) " stroke-linecap="round" />
	<path d="M 33.552 45.063 l 1.498 -15.397 h 14.669 v 5.035 h -9.842 l -0.541 6.492 c 1.137 -0.763 2.309 -1.145 3.517 -1.145 c 2.497 0 4.421 0.888 5.774 2.664 c 1.352 1.775 2.027 4.286 2.027 7.531 c 0 3.038 -0.805 5.486 -2.412 7.345 c -1.609 1.859 -3.76 2.788 -6.451 2.788 c -1.595 0 -3.073 -0.378 -4.432 -1.134 c -1.36 -0.756 -2.431 -1.807 -3.215 -3.152 c -0.784 -1.345 -1.183 -2.871 -1.196 -4.577 h 5.826 c 0.097 1.275 0.409 2.264 0.937 2.965 c 0.527 0.7 1.207 1.051 2.039 1.051 c 0.972 0 1.72 -0.47 2.247 -1.41 c 0.527 -0.939 0.791 -2.342 0.791 -4.208 c 0 -1.754 -0.314 -3.077 -0.947 -3.968 c -0.631 -0.891 -1.515 -1.337 -2.652 -1.337 c -1.11 0 -1.97 0.382 -2.58 1.145 l -0.375 0.52 L 33.552 45.063 z" style="stroke: none; stroke-width: 1; stroke-dasharray: none; stroke-linecap: butt; stroke-linejoin: miter; stroke-miterlimit: 10; fill: rgb(0,0,0); fill-rule: nonzero; opacity: 1;" transform=" matrix(1 0 0 1 0 0) " stroke-linecap="round" />
	<path d="M 68.427 42.982 h 5.889 v 5.472 h -5.889 v 8.468 h -5.575 v -8.468 H 56.86 v -5.472 h 5.992 v -8.114 h 5.575 V 42.982 z" style="stroke: none; stroke-width: 1; stroke-dasharray: none; stroke-linecap: butt; stroke-linejoin: miter; stroke-miterlimit: 10; fill: rgb(0,0,0); fill-rule: nonzero; opacity: 1;" transform=" matrix(1 0 0 1 0 0) " stroke-linecap="round" />
</g>
</svg>