<svg xmlns="http://www.w3.org/2000/svg" xmlns:xlink="http://www.w3.org/1999/xlink" version="1.1" width="256" height="256" viewBox="0 0 256 256" xml:space="preserve">

<defs>
</defs>
<g style="stroke: none; stroke-width: 0; stroke-dasharray: none; stroke-linecap: butt; stroke-linejoin: miter; stroke-miterlimit: 10; fill: none; fill-rule: nonzero; opacity: 1;" transform="translate(1.4065934065934016 1.4065934065934016) scale(2.81 2.81)" >
	<path d="M 45 0 C 20.147 0 0 20.147 0 45 c 0 24.853 20.147 45 45 45 s 45 -20.147 45 -45 C 90 20.147 69.853 0 45 0 z M 45 82.5 C 24.289 82.5 7.5 65.711 7.5 45 S 24.289 7.5 45 7.5 S 82.5 24.289 82.5 45 S 65.711 82.5 45 82.5 z" style="stroke: none; stroke-width: 1; stroke-dasharray: none; stroke-linecap: butt; stroke-linejoin: miter; stroke-miterlimit: 10; fill: rgb(255,255,255); fill-rule: nonzero; opacity: 1;" transform=" matrix(1 0 0 1 0 0) " stroke-linecap="round" />
	<path d="M 27.357 60.095 h -5.909 V 36.959 l -5.763 2.226 v -4.91 l 11.048 -4.515 h 0.625 V 60.095 z" style="stroke: none; stroke-width: 1; stroke-dasharray: none; stroke-linecap: butt; stroke-linejoin: miter; stroke-miterlimit: 10; fill: rgb(255,255,255); fill-rule: nonzero; opacity: 1;" transform=" matrix(1 0 0 1 0 0) " stroke-linecap="round" />
	<path d="M 46.992 29.489 v 4.994 H 46.66 c -2.205 0.014 -3.957 0.676 -5.253 1.987 c -1.297 1.311 -2.084 3.146 -2.361 5.503 c 1.262 -1.442 2.843 -2.164 4.744 -2.164 c 2.191 0 3.943 0.937 5.254 2.809 s 1.965 4.369 1.965 7.49 c 0 1.984 -0.373 3.773 -1.123 5.368 c -0.748 1.596 -1.799 2.833 -3.152 3.714 c -1.352 0.881 -2.881 1.321 -4.588 1.321 c -2.746 0 -4.948 -1.103 -6.605 -3.308 c -1.658 -2.206 -2.486 -5.174 -2.486 -8.905 v -2.185 c 0 -3.342 0.523 -6.269 1.571 -8.78 s 2.559 -4.442 4.536 -5.795 c 1.977 -1.352 4.282 -2.035 6.918 -2.049 H 46.992 z M 41.938 44.657 c -0.749 0 -1.377 0.237 -1.883 0.711 c -0.507 0.474 -0.884 1.06 -1.134 1.757 v 2.134 c 0 2.148 0.284 3.753 0.853 4.813 c 0.569 1.06 1.318 1.59 2.247 1.59 c 0.942 0 1.698 -0.513 2.269 -1.538 c 0.568 -1.025 0.852 -2.34 0.852 -3.944 c 0 -1.632 -0.295 -2.961 -0.883 -3.986 C 43.668 45.17 42.895 44.657 41.938 44.657 z" style="stroke: none; stroke-width: 1; stroke-dasharray: none; stroke-linecap: butt; stroke-linejoin: miter; stroke-miterlimit: 10; fill: rgb(255,255,255); fill-rule: nonzero; opacity: 1;" transform=" matrix(1 0 0 1 0 0) " stroke-linecap="round" />
	<path d="M 68.427 43.117 h 5.889 v 5.472 h -5.889 v 8.468 h -5.575 v -8.468 H 56.86 v -5.472 h 5.992 v -8.114 h 5.575 V 43.117 z" style="stroke: none; stroke-width: 1; stroke-dasharray: none; stroke-linecap: butt; stroke-linejoin: miter; stroke-miterlimit: 10; fill: rgb(255,255,255); fill-rule: nonzero; opacity: 1;" transform=" matrix(1 0 0 1 0 0) " stroke-linecap="round" />
</g>
</svg>