<svg xmlns="http://www.w3.org/2000/svg" xmlns:xlink="http://www.w3.org/1999/xlink" version="1.1" width="256" height="256" viewBox="0 0 256 256" xml:space="preserve">

<defs>
</defs>
<g style="stroke: none; stroke-width: 0; stroke-dasharray: none; stroke-linecap: butt; stroke-linejoin: miter; stroke-miterlimit: 10; fill: none; fill-rule: nonzero; opacity: 1;" transform="translate(1.4065934065934016 1.4065934065934016) scale(2.81 2.81)" >
	<path d="M 45 0 C 20.147 0 0 20.147 0 45 c 0 24.853 20.147 45 45 45 s 45 -20.147 45 -45 C 90 20.147 69.853 0 45 0 z M 45 82.5 C 24.289 82.5 7.5 65.711 7.5 45 S 24.289 7.5 45 7.5 S 82.5 24.289 82.5 45 S 65.711 82.5 45 82.5 z" style="stroke: none; stroke-width: 1; stroke-dasharray: none; stroke-linecap: butt; stroke-linejoin: miter; stroke-miterlimit: 10; fill: rgb(0,0,0); fill-rule: nonzero; opacity: 1;" transform=" matrix(1 0 0 1 0 0) " stroke-linecap="round" />
	<path d="M 27.357 60.147 h -5.909 V 37.011 l -5.763 2.226 v -4.91 l 11.048 -4.515 h 0.625 V 60.147 z" style="stroke: none; stroke-width: 1; stroke-dasharray: none; stroke-linecap: butt; stroke-linejoin: miter; stroke-miterlimit: 10; fill: rgb(0,0,0); fill-rule: nonzero; opacity: 1;" transform=" matrix(1 0 0 1 0 0) " stroke-linecap="round" />
	<path d="M 49.926 37.894 c 0 1.468 -0.311 2.77 -0.936 3.906 c -0.625 1.136 -1.484 2.043 -2.58 2.722 c 1.248 0.708 2.232 1.684 2.955 2.927 c 0.721 1.243 1.082 2.705 1.082 4.385 c 0 2.694 -0.777 4.822 -2.33 6.385 c -1.555 1.563 -3.67 2.344 -6.346 2.344 c -2.677 0 -4.806 -0.781 -6.387 -2.344 c -1.582 -1.563 -2.372 -3.69 -2.372 -6.385 c 0 -1.681 0.36 -3.146 1.082 -4.396 c 0.721 -1.25 1.713 -2.222 2.975 -2.917 c -1.11 -0.679 -1.977 -1.586 -2.601 -2.722 c -0.625 -1.136 -0.937 -2.438 -0.937 -3.906 c 0 -2.646 0.742 -4.717 2.227 -6.213 c 1.484 -1.496 3.475 -2.244 5.971 -2.244 c 2.524 0 4.521 0.755 5.991 2.265 S 49.926 35.276 49.926 37.894 z M 41.771 55.715 c 0.887 0 1.571 -0.382 2.049 -1.146 c 0.479 -0.763 0.717 -1.823 0.717 -3.183 c 0 -1.357 -0.248 -2.422 -0.748 -3.193 c -0.5 -0.77 -1.186 -1.155 -2.06 -1.155 s -1.564 0.385 -2.07 1.155 c -0.506 0.771 -0.759 1.835 -0.759 3.193 c 0 1.359 0.253 2.42 0.759 3.183 C 40.166 55.333 40.869 55.715 41.771 55.715 z M 44.059 38.196 c 0 -1.185 -0.189 -2.133 -0.572 -2.844 c -0.381 -0.711 -0.967 -1.067 -1.757 -1.067 c -0.749 0 -1.318 0.345 -1.706 1.035 c -0.389 0.69 -0.583 1.649 -0.583 2.876 c 0 1.199 0.194 2.165 0.583 2.897 c 0.388 0.732 0.971 1.098 1.748 1.098 c 0.776 0 1.352 -0.366 1.727 -1.098 C 43.871 40.361 44.059 39.396 44.059 38.196 z" style="stroke: none; stroke-width: 1; stroke-dasharray: none; stroke-linecap: butt; stroke-linejoin: miter; stroke-miterlimit: 10; fill: rgb(0,0,0); fill-rule: nonzero; opacity: 1;" transform=" matrix(1 0 0 1 0 0) " stroke-linecap="round" />
	<path d="M 68.427 43.169 h 5.889 v 5.472 h -5.889 v 8.468 h -5.575 v -8.468 H 56.86 v -5.472 h 5.992 v -8.114 h 5.575 V 43.169 z" style="stroke: none; stroke-width: 1; stroke-dasharray: none; stroke-linecap: butt; stroke-linejoin: miter; stroke-miterlimit: 10; fill: rgb(0,0,0); fill-rule: nonzero; opacity: 1;" transform=" matrix(1 0 0 1 0 0) " stroke-linecap="round" />
</g>
</svg>