<svg xmlns="http://www.w3.org/2000/svg" xmlns:xlink="http://www.w3.org/1999/xlink" version="1.1" width="256" height="256" viewBox="0 0 256 256" xml:space="preserve">

<defs>
</defs>
<g style="stroke: none; stroke-width: 0; stroke-dasharray: none; stroke-linecap: butt; stroke-linejoin: miter; stroke-miterlimit: 10; fill: none; fill-rule: nonzero; opacity: 1;" transform="translate(1.4065934065934016 1.4065934065934016) scale(2.81 2.81)" >
	<path d="M 45 0 C 20.147 0 0 20.147 0 45 c 0 24.853 20.147 45 45 45 s 45 -20.147 45 -45 C 90 20.147 69.853 0 45 0 z M 45 82.5 C 24.289 82.5 7.5 65.711 7.5 45 S 24.289 7.5 45 7.5 S 82.5 24.289 82.5 45 S 65.711 82.5 45 82.5 z" style="stroke: none; stroke-width: 1; stroke-dasharray: none; stroke-linecap: butt; stroke-linejoin: miter; stroke-miterlimit: 10; fill: rgb(0,0,0); fill-rule: nonzero; opacity: 1;" transform=" matrix(1 0 0 1 0 0) " stroke-linecap="round" />
	<path d="M 33.641 60.147 H 15.789 v -4.126 l 8.198 -10.459 c 1.04 -1.448 1.807 -2.718 2.299 -3.811 c 0.492 -1.093 0.739 -2.141 0.739 -3.143 c 0 -1.351 -0.232 -2.409 -0.697 -3.174 s -1.134 -1.148 -2.007 -1.148 c -0.958 0 -1.717 0.447 -2.278 1.342 c -0.562 0.895 -0.843 2.154 -0.843 3.776 H 15.29 c 0 -1.858 0.385 -3.558 1.155 -5.098 c 0.77 -1.54 1.852 -2.736 3.246 -3.589 s 2.972 -1.28 4.733 -1.28 c 2.705 0 4.802 0.746 6.293 2.237 c 1.491 1.491 2.237 3.61 2.237 6.356 c 0 1.706 -0.413 3.437 -1.238 5.191 c -0.826 1.755 -2.32 3.92 -4.484 6.498 l -3.891 5.58 h 10.299 V 60.147 z" style="stroke: none; stroke-width: 1; stroke-dasharray: none; stroke-linecap: butt; stroke-linejoin: miter; stroke-miterlimit: 10; fill: rgb(0,0,0); fill-rule: nonzero; opacity: 1;" transform=" matrix(1 0 0 1 0 0) " stroke-linecap="round" />
	<path d="M 54.946 47.622 c 0 4.189 -0.76 7.394 -2.277 9.612 c -1.52 2.22 -3.688 3.329 -6.502 3.329 c -2.788 0 -4.941 -1.078 -6.46 -3.235 c -1.519 -2.156 -2.306 -5.246 -2.361 -9.269 v -5.722 c 0 -4.175 0.756 -7.369 2.268 -9.581 c 1.512 -2.212 3.683 -3.319 6.512 -3.319 c 2.829 0 4.999 1.096 6.513 3.288 c 1.512 2.192 2.281 5.319 2.309 9.383 V 47.622 z M 49.038 41.47 c 0 -2.395 -0.236 -4.191 -0.709 -5.389 c -0.471 -1.198 -1.206 -1.796 -2.204 -1.796 c -1.873 0 -2.844 2.193 -2.913 6.58 v 7.582 c 0 2.451 0.239 4.275 0.718 5.473 c 0.479 1.197 1.224 1.796 2.237 1.796 c 0.957 0 1.667 -0.561 2.131 -1.682 s 0.711 -2.837 0.74 -5.148 V 41.47 z" style="stroke: none; stroke-width: 1; stroke-dasharray: none; stroke-linecap: butt; stroke-linejoin: miter; stroke-miterlimit: 10; fill: rgb(0,0,0); fill-rule: nonzero; opacity: 1;" transform=" matrix(1 0 0 1 0 0) " stroke-linecap="round" />
	<path d="M 70.822 43.169 h 5.889 v 5.472 h -5.889 v 8.468 h -5.575 v -8.468 h -5.992 v -5.472 h 5.992 v -8.114 h 5.575 V 43.169 z" style="stroke: none; stroke-width: 1; stroke-dasharray: none; stroke-linecap: butt; stroke-linejoin: miter; stroke-miterlimit: 10; fill: rgb(0,0,0); fill-rule: nonzero; opacity: 1;" transform=" matrix(1 0 0 1 0 0) " stroke-linecap="round" />
</g>
</svg>