<svg xmlns="http://www.w3.org/2000/svg" xmlns:xlink="http://www.w3.org/1999/xlink" version="1.1" width="256" height="256" viewBox="0 0 256 256" xml:space="preserve">

<defs>
</defs>
<g style="stroke: none; stroke-width: 0; stroke-dasharray: none; stroke-linecap: butt; stroke-linejoin: miter; stroke-miterlimit: 10; fill: none; fill-rule: nonzero; opacity: 1;" transform="translate(1.4065934065934016 1.4065934065934016) scale(2.81 2.81)" >
	<path d="M 45 0 C 20.147 0 0 20.147 0 45 c 0 24.853 20.147 45 45 45 s 45 -20.147 45 -45 C 90 20.147 69.853 0 45 0 z M 45 82.5 C 24.289 82.5 7.5 65.711 7.5 45 S 24.289 7.5 45 7.5 S 82.5 24.289 82.5 45 S 65.711 82.5 45 82.5 z" style="stroke: none; stroke-width: 1; stroke-dasharray: none; stroke-linecap: butt; stroke-linejoin: miter; stroke-miterlimit: 10; fill: rgb(0,0,0); fill-rule: nonzero; opacity: 1;" transform=" matrix(1 0 0 1 0 0) " stroke-linecap="round" />
	<path d="M 26.42 45.042 l 1.498 -15.397 h 14.668 v 5.035 h -9.841 l -0.541 6.492 c 1.137 -0.763 2.309 -1.145 3.516 -1.145 c 2.497 0 4.421 0.888 5.773 2.664 c 1.353 1.775 2.029 4.286 2.029 7.531 c 0 3.038 -0.805 5.486 -2.414 7.345 c -1.609 1.859 -3.759 2.788 -6.45 2.788 c -1.595 0 -3.073 -0.378 -4.432 -1.134 c -1.36 -0.756 -2.431 -1.807 -3.215 -3.152 c -0.784 -1.345 -1.183 -2.871 -1.196 -4.577 h 5.826 c 0.097 1.275 0.409 2.264 0.937 2.965 c 0.527 0.7 1.207 1.051 2.039 1.051 c 0.971 0 1.72 -0.47 2.247 -1.41 c 0.527 -0.939 0.791 -2.342 0.791 -4.208 c 0 -1.754 -0.316 -3.077 -0.947 -3.968 c -0.631 -0.891 -1.516 -1.337 -2.653 -1.337 c -1.11 0 -1.97 0.382 -2.58 1.145 l -0.375 0.52 L 26.42 45.042 z" style="stroke: none; stroke-width: 1; stroke-dasharray: none; stroke-linecap: butt; stroke-linejoin: miter; stroke-miterlimit: 10; fill: rgb(0,0,0); fill-rule: nonzero; opacity: 1;" transform=" matrix(1 0 0 1 0 0) " stroke-linecap="round" />
	<path d="M 58.295 42.961 h 5.889 v 5.472 h -5.889 v 8.468 H 52.72 v -8.468 h -5.992 v -5.472 h 5.992 v -8.114 h 5.574 V 42.961 z" style="stroke: none; stroke-width: 1; stroke-dasharray: none; stroke-linecap: butt; stroke-linejoin: miter; stroke-miterlimit: 10; fill: rgb(0,0,0); fill-rule: nonzero; opacity: 1;" transform=" matrix(1 0 0 1 0 0) " stroke-linecap="round" />
</g>
</svg>