<svg xmlns="http://www.w3.org/2000/svg" xmlns:xlink="http://www.w3.org/1999/xlink" version="1.1" width="256" height="256" viewBox="0 0 256 256" xml:space="preserve">

<defs>
</defs>
<g style="stroke: none; stroke-width: 0; stroke-dasharray: none; stroke-linecap: butt; stroke-linejoin: miter; stroke-miterlimit: 10; fill: none; fill-rule: nonzero; opacity: 1;" transform="translate(1.4065934065934016 1.4065934065934016) scale(2.81 2.81)" >
	<path d="M 45 0 C 20.147 0 0 20.147 0 45 c 0 24.853 20.147 45 45 45 s 45 -20.147 45 -45 C 90 20.147 69.853 0 45 0 z M 45 82.5 C 24.289 82.5 7.5 65.711 7.5 45 S 24.289 7.5 45 7.5 S 82.5 24.289 82.5 45 S 65.711 82.5 45 82.5 z" style="stroke: none; stroke-width: 1; stroke-dasharray: none; stroke-linecap: butt; stroke-linejoin: miter; stroke-miterlimit: 10; fill: rgb(0,0,0); fill-rule: nonzero; opacity: 1;" transform=" matrix(1 0 0 1 0 0) " stroke-linecap="round" />
	<path d="M 37.291 48.485 c -1.248 1.276 -2.615 1.914 -4.099 1.914 c -2.303 0 -4.116 -0.926 -5.441 -2.777 c -1.325 -1.852 -1.987 -4.324 -1.987 -7.417 c 0 -1.998 0.375 -3.825 1.124 -5.482 c 0.749 -1.657 1.792 -2.944 3.131 -3.859 c 1.338 -0.916 2.833 -1.374 4.484 -1.374 c 1.706 0 3.225 0.507 4.556 1.519 c 1.332 1.013 2.365 2.465 3.1 4.359 c 0.735 1.893 1.103 4.047 1.103 6.46 v 2.143 c 0 5.161 -1.134 9.193 -3.402 12.099 s -5.482 4.387 -9.644 4.442 h -0.604 v -5.077 h 0.396 c 2.302 -0.014 4.033 -0.61 5.191 -1.789 S 37.055 50.746 37.291 48.485 z M 34.69 45.78 c 1.137 0 2.032 -0.78 2.684 -2.339 v -2.715 c 0 -1.991 -0.271 -3.553 -0.812 -4.688 s -1.242 -1.702 -2.102 -1.702 c -0.846 0 -1.529 0.56 -2.049 1.681 c -0.52 1.121 -0.78 2.489 -0.78 4.104 c 0 1.754 0.271 3.136 0.812 4.145 S 33.733 45.78 34.69 45.78 z" style="stroke: none; stroke-width: 1; stroke-dasharray: none; stroke-linecap: butt; stroke-linejoin: miter; stroke-miterlimit: 10; fill: rgb(0,0,0); fill-rule: nonzero; opacity: 1;" transform=" matrix(1 0 0 1 0 0) " stroke-linecap="round" />
	<path d="M 58.347 43.221 h 5.889 v 5.472 h -5.889 v 8.468 h -5.574 v -8.468 H 46.78 v -5.472 h 5.992 v -8.114 h 5.574 V 43.221 z" style="stroke: none; stroke-width: 1; stroke-dasharray: none; stroke-linecap: butt; stroke-linejoin: miter; stroke-miterlimit: 10; fill: rgb(0,0,0); fill-rule: nonzero; opacity: 1;" transform=" matrix(1 0 0 1 0 0) " stroke-linecap="round" />
</g>
</svg>