<svg xmlns="http://www.w3.org/2000/svg" xmlns:xlink="http://www.w3.org/1999/xlink" version="1.1" width="256" height="256" viewBox="0 0 256 256" xml:space="preserve">

<defs>
</defs>
<g style="stroke: none; stroke-width: 0; stroke-dasharray: none; stroke-linecap: butt; stroke-linejoin: miter; stroke-miterlimit: 10; fill: none; fill-rule: nonzero; opacity: 1;" transform="translate(1.4065934065934016 1.4065934065934016) scale(2.81 2.81)" >
	<path d="M 45 0 C 20.147 0 0 20.147 0 45 c 0 24.853 20.147 45 45 45 s 45 -20.147 45 -45 C 90 20.147 69.853 0 45 0 z M 45 82.5 C 24.289 82.5 7.5 65.711 7.5 45 S 24.289 7.5 45 7.5 S 82.5 24.289 82.5 45 S 65.711 82.5 45 82.5 z" style="stroke: none; stroke-width: 1; stroke-dasharray: none; stroke-linecap: butt; stroke-linejoin: miter; stroke-miterlimit: 10; fill: rgb(0,0,0); fill-rule: nonzero; opacity: 1;" transform=" matrix(1 0 0 1 0 0) " stroke-linecap="round" />
	<path d="M 29.82 52.455 h -6.953 l -1.352 5.167 h -5.393 l 7.889 -25.245 h 4.664 l 7.941 25.245 h -5.444 L 29.82 52.455 z M 23.977 48.208 h 4.716 l -2.358 -9 L 23.977 48.208 z" style="stroke: none; stroke-width: 1; stroke-dasharray: none; stroke-linecap: butt; stroke-linejoin: miter; stroke-miterlimit: 10; fill: rgb(0,0,0); fill-rule: nonzero; opacity: 1;" transform=" matrix(1 0 0 1 0 0) " stroke-linecap="round" />
	<path d="M 55.776 54.761 c -0.982 1.064 -2.188 1.864 -3.615 2.402 c -1.428 0.537 -2.99 0.806 -4.689 0.806 c -2.901 0 -5.156 -0.898 -6.762 -2.696 c -1.607 -1.797 -2.433 -4.412 -2.479 -7.846 v -4.542 c 0 -3.479 0.76 -6.158 2.28 -8.036 c 1.52 -1.878 3.736 -2.817 6.649 -2.817 c 2.74 0 4.806 0.676 6.199 2.028 c 1.393 1.353 2.198 3.474 2.418 6.363 h -4.959 c -0.139 -1.606 -0.474 -2.702 -1.005 -3.286 c -0.532 -0.583 -1.364 -0.875 -2.497 -0.875 c -1.375 0 -2.375 0.503 -3 1.508 c -0.624 1.006 -0.948 2.607 -0.971 4.803 v 4.577 c 0 2.301 0.344 3.974 1.031 5.02 c 0.688 1.047 1.818 1.569 3.39 1.569 c 1.005 0 1.82 -0.202 2.444 -0.606 l 0.451 -0.313 v -4.629 h -3.572 v -3.85 h 8.687 V 54.761 z" style="stroke: none; stroke-width: 1; stroke-dasharray: none; stroke-linecap: butt; stroke-linejoin: miter; stroke-miterlimit: 10; fill: rgb(0,0,0); fill-rule: nonzero; opacity: 1;" transform=" matrix(1 0 0 1 0 0) " stroke-linecap="round" />
	<path d="M 72.421 46.698 H 64.48 v 6.693 h 9.397 v 4.23 H 59.382 V 32.378 h 14.461 v 4.248 H 64.48 v 5.965 h 7.941 V 46.698 z" style="stroke: none; stroke-width: 1; stroke-dasharray: none; stroke-linecap: butt; stroke-linejoin: miter; stroke-miterlimit: 10; fill: rgb(0,0,0); fill-rule: nonzero; opacity: 1;" transform=" matrix(1 0 0 1 0 0) " stroke-linecap="round" />
</g>
</svg>